<?xml version="1.0" encoding="UTF-8" standalone="no"?>
<svg
   xmlns:dc="http://purl.org/dc/elements/1.1/"
   xmlns:cc="http://creativecommons.org/ns#"
   xmlns:rdf="http://www.w3.org/1999/02/22-rdf-syntax-ns#"
   xmlns:svg="http://www.w3.org/2000/svg"
   xmlns="http://www.w3.org/2000/svg"
   viewBox="0 0 994 507.63733"
   height="507.63733"
   width="994"
   xml:space="preserve"
   id="svg2"
   version="1.1"><metadata
     id="metadata8"><rdf:RDF><cc:Work
         rdf:about=""><dc:format>image/svg+xml</dc:format><dc:type
           rdf:resource="http://purl.org/dc/dcmitype/StillImage" /></cc:Work></rdf:RDF></metadata><defs
     id="defs6"><clipPath
       id="clipPath18"
       clipPathUnits="userSpaceOnUse"><path
         id="path16"
         d="M 0,380.728 H 745.5 V 0 H 0 Z" /></clipPath><clipPath
       id="clipPath82"
       clipPathUnits="userSpaceOnUse"><path
         id="path80"
         d="M 0,380.728 H 745.5 V 0 H 0 Z" /></clipPath></defs><g
     transform="matrix(1.3333333,0,0,-1.3333333,0,507.63733)"
     id="g10"><g
       id="g12"><g
         clip-path="url(#clipPath18)"
         id="g14"><g
           transform="translate(462.5801,154.6711)"
           id="g20"><path
             id="path22"
             style="fill:none;stroke:#100f0d;stroke-width:8;stroke-linecap:butt;stroke-linejoin:miter;stroke-miterlimit:10;stroke-dasharray:none;stroke-opacity:1"
             d="m 0,0 c -14.217,6.674 -23.722,18.471 -27.578,32.591 -3.857,14.12 -0.704,29.697 8.427,41.643 9.387,12.284 24.17,20.226 39.156,26.393 9.133,3.759 18.663,7.037 28.641,7.916 13.021,1.148 26.303,-1.927 37.645,-7.855 11.342,-5.928 20.792,-14.613 28.032,-24.521 2.646,-3.62 5.021,-7.429 6.684,-11.504 3.149,-7.724 3.637,-16.116 3.673,-24.353 0.022,-5.019 -0.12,-10.102 -1.603,-14.937 C 119.518,13.767 108.661,5.084 96.892,-0.45" /></g><g
           transform="translate(483.2139,182.4138)"
           id="g24"><path
             id="path26"
             style="fill:none;stroke:#100f0d;stroke-width:6;stroke-linecap:butt;stroke-linejoin:miter;stroke-miterlimit:10;stroke-dasharray:none;stroke-opacity:1"
             d="m 0,0 c -8.67,-3.186 -12.581,-8.64 -16.969,-16.021 -5.885,-9.896 -7.682,-22.389 -4.589,-33.573 3.094,-11.184 11.101,-20.842 21.382,-25.418 4.845,-2.156 10.079,-3.205 15.311,-3.857 12.272,-1.528 24.946,-0.907 36.624,3.308 4.614,1.666 9.123,3.938 12.653,7.45 3.985,3.964 6.493,9.275 8.325,14.685 2.34,6.907 3.715,14.286 2.975,21.57 -0.74,7.283 -3.748,14.476 -9.069,19.268 -3.455,3.111 -7.705,5.095 -11.983,6.764 C 40.063,-0.128 24.328,2.387 8.762,1.513 4.325,1.264 -0.29,0.674 -3.997,-1.875" /></g><g
           transform="translate(476.4189,136.9856)"
           id="g28"><path
             id="path30"
             style="fill:#100f0d;fill-opacity:1;fill-rule:nonzero;stroke:none"
             d="m 0,0 c 0.284,2.338 3.451,4.597 5.174,5.897 2.087,1.575 4.385,2.854 6.811,3.823 2.214,0.884 1.248,4.512 -0.997,3.616 C 5.47,11.133 -2.95,6.585 -3.75,0 -4.04,-2.39 -0.287,-2.369 0,0" /></g><g
           transform="translate(481.3809,141.178)"
           id="g32"><path
             id="path34"
             style="fill:#100f0d;fill-opacity:1;fill-rule:nonzero;stroke:none"
             d="m 0,0 c 2.071,-0.1 3.752,-6.198 6.128,-7.296 2.823,-1.304 5.636,-0.145 8.562,-0.496 5.804,-0.694 9.108,-7.571 15.503,-5.235 2.828,1.033 4.919,4.308 7.862,4.891 3.569,0.706 6.818,-2.419 10.646,-1.479 5.082,1.247 8.325,5.793 8.625,10.86 0.143,2.411 -3.607,2.402 -3.75,0 -0.255,-4.301 -3.987,-8.037 -8.493,-7.244 -2.388,0.42 -4.327,1.877 -6.856,1.652 -5.92,-0.528 -8.269,-7.861 -14.715,-3.785 -1.92,1.214 -3.609,2.76 -5.792,3.521 -2.426,0.844 -4.773,0.382 -7.269,0.38 C 4.948,-4.236 5.795,3.471 0,3.75 -2.412,3.866 -2.406,0.116 0,0" /></g><g
           transform="translate(528.2754,144.5808)"
           id="g36"><path
             id="path38"
             style="fill:#100f0d;fill-opacity:1;fill-rule:nonzero;stroke:none"
             d="m 0,0 c 4.43,-0.102 8.411,-2.283 10.942,-5.916 1.37,-1.966 4.621,-0.094 3.238,1.893 C 10.874,0.724 5.819,3.616 0,3.75 -2.414,3.805 -2.413,0.055 0,0" /></g><g
           transform="translate(509.124,128.2512)"
           id="g40"><path
             id="path42"
             style="fill:#100f0d;fill-opacity:1;fill-rule:nonzero;stroke:none"
             d="m 0,0 c 2.985,-8.854 8.186,-17.638 18.882,-14.268 10.616,3.345 6.566,13.297 1.889,20.136 -1.355,1.98 -4.606,0.106 -3.239,-1.893 3.359,-4.91 7.963,-12.972 -0.942,-14.986 C 8.732,-12.788 5.667,-5.086 3.616,0.997 2.849,3.272 -0.774,2.296 0,0" /></g><g
           transform="translate(516.6895,131.0583)"
           id="g44"><path
             id="path46"
             style="fill:#100f0d;fill-opacity:1;fill-rule:nonzero;stroke:none"
             d="M 0,0 C 1.935,-2.151 3.559,-4.509 4.926,-7.058 6.067,-9.185 9.306,-7.293 8.164,-5.165 6.647,-2.34 4.795,0.268 2.651,2.651 1.034,4.45 -1.61,1.791 0,0" /></g><g
           transform="translate(490.7119,163.2439)"
           id="g48"><path
             id="path50"
             style="fill:#100f0d;fill-opacity:1;fill-rule:nonzero;stroke:none"
             d="m 0,0 c 4.683,-5.261 8.558,-11.047 11.714,-17.339 1.082,-2.158 4.318,-0.261 3.238,1.892 C 11.653,-8.872 7.542,-2.842 2.652,2.652 1.044,4.458 -1.6,1.798 0,0" /></g><g
           transform="translate(487.9893,152.5715)"
           id="g52"><path
             id="path54"
             style="fill:#100f0d;fill-opacity:1;fill-rule:nonzero;stroke:none"
             d="m 0,0 c 5.84,2.074 11.143,5.014 16.044,8.802 1.906,1.473 -0.765,4.11 -2.652,2.651 C 9.029,8.082 4.196,5.46 -0.997,3.616 -3.256,2.814 -2.283,-0.81 0,0" /></g><g
           transform="translate(513.7949,162.1677)"
           id="g56"><path
             id="path58"
             style="fill:#100f0d;fill-opacity:1;fill-rule:nonzero;stroke:none"
             d="m 0,0 c 2.949,-4.112 5.602,-8.402 7.966,-12.876 1.128,-2.134 4.365,-0.242 3.237,1.893 C 8.839,-6.509 6.187,-2.219 3.238,1.893 1.845,3.837 -1.409,1.966 0,0" /></g><g
           transform="translate(515.4492,150.6272)"
           id="g60"><path
             id="path62"
             style="fill:#100f0d;fill-opacity:1;fill-rule:nonzero;stroke:none"
             d="m 0,0 c 3.297,4.336 7.089,8.245 11.267,11.735 1.854,1.55 -0.811,4.19 -2.652,2.652 C 4.176,10.678 0.262,6.495 -3.237,1.893 -4.698,-0.028 -1.443,-1.898 0,0" /></g><g
           transform="translate(445.1338,227.095)"
           id="g64"><path
             id="path66"
             style="fill:#100f0d;fill-opacity:1;fill-rule:nonzero;stroke:none"
             d="m 0,0 c 5.344,0.779 10.346,-3.116 13.518,-7.645 4.594,-6.559 6.725,-14.702 7.281,-22.791 0.276,-4.027 0.164,-8.19 -1.305,-11.93 -2.034,-5.181 -6.421,-8.953 -10.952,-11.986 -3.183,-2.129 -7.407,-3.999 -10.561,-1.823 -1.358,0.937 -2.213,2.466 -2.973,3.964 -4.024,7.937 -6.726,16.782 -6.476,25.747 0.251,8.965 3.708,18.047 10.328,23.813" /></g><g
           transform="translate(508.9971,250.5979)"
           id="g68"><path
             id="path70"
             style="fill:#100f0d;fill-opacity:1;fill-rule:nonzero;stroke:none"
             d="m 0,0 c -7.275,-0.416 -13.868,-5.27 -17.86,-11.595 -3.994,-6.324 -5.66,-13.959 -6.176,-21.5 -0.487,-7.135 0.262,-15.01 5.069,-20.136 3.334,-3.555 8.118,-5.21 12.813,-6.145 4.107,-0.817 8.333,-1.177 12.479,-0.605 10.002,1.379 19.077,8.541 23.029,18.173 3.953,9.633 2.637,21.385 -3.337,29.821 C 20.041,-3.551 9.625,1.262 -0.415,0.226" /></g><g
           transform="translate(570.8662,235.8738)"
           id="g72"><path
             id="path74"
             style="fill:#100f0d;fill-opacity:1;fill-rule:nonzero;stroke:none"
             d="m 0,0 c -6.086,-0.591 -11.355,-5.144 -14.229,-10.741 -2.875,-5.596 -3.651,-12.109 -3.609,-18.45 0.077,-11.783 3.396,-24.446 12.436,-31.576 2.271,-1.791 4.979,-3.21 7.832,-3.138 6.008,0.149 10.008,6.55 11.741,12.521 5.31,18.305 -1.209,39.665 -15.706,51.462" /></g></g></g><g
       id="g76"><g
         clip-path="url(#clipPath82)"
         id="g78"><g
           transform="translate(203.6748,182.4138)"
           id="g84"><path
             id="path86"
             style="fill:none;stroke:#100f0d;stroke-width:6;stroke-linecap:butt;stroke-linejoin:miter;stroke-miterlimit:10;stroke-dasharray:none;stroke-opacity:1"
             d="m 0,0 c -8.669,-3.186 -12.58,-8.64 -16.969,-16.021 -5.885,-9.896 -7.682,-22.389 -4.588,-33.573 3.094,-11.184 11.101,-20.842 21.382,-25.418 4.845,-2.156 10.079,-3.205 15.311,-3.857 12.272,-1.528 24.946,-0.907 36.624,3.308 4.614,1.666 9.123,3.938 12.653,7.45 3.985,3.964 6.492,9.275 8.325,14.685 2.34,6.907 3.714,14.286 2.975,21.57 -0.74,7.283 -3.748,14.476 -9.07,19.268 -3.455,3.111 -7.705,5.095 -11.983,6.764 C 40.063,-0.128 24.329,2.387 8.763,1.513 4.326,1.264 -0.289,0.674 -3.997,-1.875" /></g><g
           transform="translate(183.042,154.6711)"
           id="g88"><path
             id="path90"
             style="fill:none;stroke:#100f0d;stroke-width:8;stroke-linecap:butt;stroke-linejoin:miter;stroke-miterlimit:10;stroke-dasharray:none;stroke-opacity:1"
             d="m 0,0 c -14.218,6.674 -23.722,18.471 -27.578,32.591 -3.857,14.12 -0.705,29.697 8.427,41.643 9.387,12.284 24.169,20.226 39.156,26.393 9.133,3.759 18.663,7.037 28.641,7.916 13.021,1.148 26.303,-1.927 37.645,-7.855 11.342,-5.928 20.792,-14.613 28.032,-24.521 2.646,-3.62 5.021,-7.429 6.683,-11.504 3.15,-7.724 3.638,-16.116 3.674,-24.353 0.022,-5.019 -0.12,-10.102 -1.603,-14.937 C 119.518,13.767 108.661,5.084 96.892,-0.45" /></g><g
           transform="translate(197.8809,136.9856)"
           id="g92"><path
             id="path94"
             style="fill:#100f0d;fill-opacity:1;fill-rule:nonzero;stroke:none"
             d="m 0,0 c 0.284,2.338 3.451,4.597 5.174,5.897 2.087,1.575 4.384,2.854 6.811,3.823 2.214,0.884 1.248,4.512 -0.997,3.616 C 5.47,11.133 -2.95,6.585 -3.75,0 -4.04,-2.39 -0.287,-2.369 0,0" /></g><g
           transform="translate(202.8428,141.178)"
           id="g96"><path
             id="path98"
             style="fill:#100f0d;fill-opacity:1;fill-rule:nonzero;stroke:none"
             d="m 0,0 c 2.071,-0.1 3.752,-6.198 6.128,-7.296 2.823,-1.304 5.636,-0.145 8.562,-0.496 5.803,-0.694 9.108,-7.571 15.503,-5.235 2.828,1.033 4.919,4.308 7.862,4.891 3.569,0.706 6.818,-2.419 10.646,-1.479 5.082,1.247 8.324,5.793 8.625,10.86 0.143,2.411 -3.607,2.402 -3.75,0 -0.255,-4.301 -3.987,-8.037 -8.493,-7.244 -2.388,0.42 -4.328,1.877 -6.857,1.652 -5.919,-0.528 -8.268,-7.861 -14.714,-3.785 -1.92,1.214 -3.609,2.76 -5.792,3.521 -2.426,0.844 -4.774,0.382 -7.269,0.38 C 4.948,-4.236 5.794,3.471 0,3.75 -2.412,3.866 -2.406,0.116 0,0" /></g><g
           transform="translate(249.7373,144.5808)"
           id="g100"><path
             id="path102"
             style="fill:#100f0d;fill-opacity:1;fill-rule:nonzero;stroke:none"
             d="M 0,0 C 4.43,-0.102 8.411,-2.283 10.941,-5.916 12.312,-7.882 15.563,-6.01 14.18,-4.023 10.874,0.724 5.818,3.616 0,3.75 -2.414,3.805 -2.413,0.055 0,0" /></g><g
           transform="translate(230.5859,128.2512)"
           id="g104"><path
             id="path106"
             style="fill:#100f0d;fill-opacity:1;fill-rule:nonzero;stroke:none"
             d="m 0,0 c 2.985,-8.854 8.186,-17.638 18.882,-14.268 10.616,3.345 6.566,13.297 1.889,20.136 -1.355,1.98 -4.606,0.106 -3.239,-1.893 3.359,-4.91 7.963,-12.972 -0.942,-14.986 C 8.732,-12.788 5.667,-5.086 3.615,0.997 2.849,3.272 -0.774,2.296 0,0" /></g><g
           transform="translate(238.1514,131.0583)"
           id="g108"><path
             id="path110"
             style="fill:#100f0d;fill-opacity:1;fill-rule:nonzero;stroke:none"
             d="M 0,0 C 1.934,-2.151 3.558,-4.509 4.926,-7.058 6.067,-9.185 9.306,-7.293 8.163,-5.165 6.647,-2.34 4.795,0.268 2.651,2.651 1.034,4.45 -1.61,1.791 0,0" /></g><g
           transform="translate(221.1484,165.8166)"
           id="g112"><path
             id="path114"
             style="fill:#100f0d;fill-opacity:1;fill-rule:nonzero;stroke:none"
             d="m 0,0 c -0.555,0.472 -1.073,0.765 -1.557,0.911 -1.396,1.044 -3.104,1.27 -4.695,-0.456 -1.432,-1.552 -1.86,-3.692 -1.743,-5.877 -0.3,-1.991 -0.151,-4.032 0.57,-6.003 0.988,-2.699 3.344,-5.352 6.508,-4.329 C 5.664,-13.625 4.194,-3.57 0,0" /></g><g
           transform="translate(245.5469,163.4729)"
           id="g116"><path
             id="path118"
             style="fill:#100f0d;fill-opacity:1;fill-rule:nonzero;stroke:none"
             d="m 0,0 c -0.45,0.75 -0.916,1.255 -1.389,1.575 -0.982,1.31 -2.459,1.985 -4.416,0.994 -1.967,-0.995 -3.039,-3.006 -3.551,-5.238 -0.757,-1.641 -1.18,-3.426 -1.155,-5.297 0.038,-2.823 1.198,-6.242 4.427,-6.61 C 1.169,-15.402 2.784,-4.642 0,0" /></g><g
           transform="translate(165.5957,227.095)"
           id="g120"><path
             id="path122"
             style="fill:#100f0d;fill-opacity:1;fill-rule:nonzero;stroke:none"
             d="m 0,0 c 5.344,0.779 10.346,-3.116 13.518,-7.645 4.594,-6.559 6.725,-14.702 7.281,-22.791 0.276,-4.027 0.164,-8.19 -1.305,-11.93 -2.034,-5.181 -6.421,-8.953 -10.952,-11.986 -3.183,-2.129 -7.407,-3.999 -10.561,-1.823 -1.358,0.937 -2.213,2.466 -2.973,3.964 -4.024,7.937 -6.726,16.782 -6.476,25.747 0.251,8.965 3.708,18.047 10.328,23.813" /></g><g
           transform="translate(229.459,250.5979)"
           id="g124"><path
             id="path126"
             style="fill:#100f0d;fill-opacity:1;fill-rule:nonzero;stroke:none"
             d="m 0,0 c -7.275,-0.416 -13.868,-5.27 -17.86,-11.595 -3.994,-6.324 -5.661,-13.959 -6.176,-21.5 -0.488,-7.135 0.262,-15.01 5.069,-20.136 3.334,-3.555 8.118,-5.21 12.813,-6.145 4.107,-0.817 8.333,-1.177 12.479,-0.605 10.002,1.379 19.077,8.541 23.029,18.173 3.953,9.633 2.637,21.385 -3.338,29.821 C 20.041,-3.551 9.625,1.262 -0.415,0.226" /></g><g
           transform="translate(291.3281,235.8738)"
           id="g128"><path
             id="path130"
             style="fill:#100f0d;fill-opacity:1;fill-rule:nonzero;stroke:none"
             d="m 0,0 c -6.086,-0.591 -11.355,-5.144 -14.229,-10.741 -2.875,-5.596 -3.651,-12.109 -3.609,-18.45 0.076,-11.783 3.396,-24.446 12.436,-31.576 2.271,-1.791 4.979,-3.21 7.832,-3.138 6.008,0.149 10.008,6.55 11.741,12.521 5.31,18.305 -1.209,39.665 -15.706,51.462" /></g></g></g></g></svg>